<svg width="34" height="31" viewBox="0 0 34 31" fill="none" xmlns="http://www.w3.org/2000/svg">
<path d="M0 18.6212V14.0864C0 13.6711 0.341234 13.3313 0.759231 13.3313H8.77248L5.28369 19.3773H0.759231C0.341234 19.3773 0 19.0382 0 18.6212ZM5.70814 27.9068L3.15082 29.6394C2.80671 29.8733 2.56337 29.7253 2.61108 29.3123L2.95231 26.348C2.99978 25.9351 3.33465 25.7664 3.69678 25.9728L5.67589 27.1034C6.03741 27.3108 6.05225 27.6737 5.70814 27.9068ZM6.32223 26.2359L4.34312 25.1049C3.9813 24.8983 3.8538 24.4348 4.06428 24.0744L13.2287 8.18827C13.4366 7.8273 13.9052 7.70074 14.2668 7.91012L16.2459 9.03817C16.608 9.24756 16.7322 9.71139 16.5248 10.071L7.36054 25.9582C7.15294 26.3187 6.6839 26.4423 6.32223 26.2359ZM13.2969 19.3773L16.7857 13.3313H18.7946L21.6276 19.3773H13.2969ZM24.6598 21.1815C23.8675 20.7859 19.9216 11.722 18.9107 9.35718C17.8986 6.99224 14.8428 0.697198 15.8313 0.207335C16.5343 -0.143845 19.0589 4.81314 20.9515 7.78908C22.8413 10.7652 26.7933 18.4385 27.2796 19.3123C27.7634 20.1884 26.8141 20.9187 26.2861 21.1374C25.7577 21.356 25.4517 21.5739 24.6598 21.1815ZM27.2527 25.3476L26.0605 23.4726C25.8139 23.0824 25.942 22.6008 26.3419 22.3953L27.4783 21.8133C27.879 21.6095 28.3805 21.7749 28.5937 22.1828L29.5342 23.9839C29.7481 24.3911 29.6024 24.914 29.2165 25.1442L28.4039 25.628C28.0182 25.8611 27.4993 25.7341 27.2527 25.3476ZM31.6406 30.2659C31.3915 29.4714 29.4896 29.4189 28.6382 28.2227C27.7839 27.0304 28.4899 26.4161 28.7865 26.1326C32.24 24.1959 31.6406 30.2659 31.6406 30.2659ZM33.4177 18.6212C33.4177 19.0382 33.0766 19.3772 32.6585 19.3772H28.6474C28.6031 19.144 28.5314 18.9109 28.4102 18.6923C28.3057 18.5062 28.0418 18.0043 27.6741 17.3049C27.1432 16.2955 26.3807 14.8517 25.5644 13.3313H32.6581C33.0763 13.3313 33.4174 13.6711 33.4174 14.0864V18.6212H33.4177Z" fill="white"/>
</svg>
