<svg width="100" height="29" viewBox="0 0 100 29" fill="none" xmlns="http://www.w3.org/2000/svg">
<path fill-rule="evenodd" clip-rule="evenodd" d="M84.6821 23.8007C84.2732 23.6704 83.9162 23.5192 83.6141 23.3473L82.189 27.1669C82.8144 27.4483 83.4735 27.675 84.1636 27.8495C84.8543 28.0214 85.6097 28.1075 86.4304 28.1075C87.7255 28.1075 88.8533 27.8365 89.8153 27.2972C90.7765 26.7579 91.5376 25.8277 92.0976 24.5119L100 5.797H94.1712L90.9979 15.0229L87.7929 5.797H81.6388L88.3431 20.9164L87.436 22.9591C87.2617 23.3473 87.0509 23.6157 86.8028 23.7668C86.5555 23.9178 86.2273 23.9934 85.8156 23.9934C85.472 23.9934 85.0939 23.931 84.6821 23.8007ZM75.6231 14.5226C75.9463 14.4914 76.2717 14.4627 76.5949 14.4419V17.3887C76.3139 17.6049 76.0061 17.7769 75.673 17.9071C75.3364 18.0374 74.9668 18.0999 74.555 18.0999C73.995 18.0999 73.5572 17.9567 73.2445 17.6649C72.9318 17.3731 72.773 17.0004 72.773 16.5471C72.773 16.1146 72.9136 15.7212 73.1946 15.3642C73.4764 15.0099 73.9507 14.7754 74.6204 14.6686C74.9668 14.6034 75.2999 14.554 75.6231 14.5226ZM76.9519 20.3667L77.4051 21.599L82.1651 21.599V11.6253C82.1651 9.50974 81.5503 7.949 80.3185 6.94594C79.0881 5.94023 77.4367 5.43999 75.3652 5.43999C73.8748 5.43999 72.5959 5.65626 71.5271 6.08876C70.4591 6.51867 69.4925 7.11266 68.6301 7.86826L71.1547 10.6848C71.6733 10.2757 72.2074 9.95264 72.7569 9.71288C73.3099 9.4758 73.8959 9.35859 74.5234 9.35859C75.0841 9.35859 75.5711 9.50967 75.9801 9.81196C76.389 10.1142 76.5949 10.5884 76.5949 11.2372V11.6253C76.1002 11.6463 75.5528 11.6855 74.9591 11.7375C74.3646 11.7921 73.7237 11.8729 73.033 11.9823C72.2776 12.0892 71.5665 12.2716 70.8968 12.5321C70.2273 12.7901 69.6385 13.1261 69.1304 13.5352C68.6249 13.9442 68.2237 14.4419 67.9345 15.0229C67.6427 15.6065 67.4967 16.2891 67.4967 17.0656C67.4967 17.8212 67.6244 18.4908 67.885 19.0718C68.1429 19.6554 68.505 20.1582 68.9688 20.5777C69.4326 20.9998 69.9798 21.3177 70.6052 21.5339C71.2306 21.7475 71.9101 21.857 72.6451 21.857C73.6169 21.857 74.4693 21.7111 75.2036 21.4193C75.9358 21.1301 76.5197 20.7784 76.9519 20.3667ZM42.3125 1.80547L49.3159 21.599H53.6228L56.0823 13.3085L58.5757 21.599H62.9138L68.5181 5.797H62.721L60.3891 14.1839L57.9608 5.797H54.2689L51.8406 14.1839L47.7917 1.80547H42.3125ZM32.2815 5.797V9.74689H34.5169V16.6773C34.5169 17.4746 34.5978 18.1963 34.7593 18.8451C34.9208 19.4939 35.197 20.0436 35.5852 20.4969C35.9734 20.9503 36.4867 21.302 37.1224 21.5496C37.7607 21.7971 38.5424 21.9221 39.4699 21.9221C40.5721 21.9221 41.5387 21.7918 42.3698 21.5339C43.2009 21.2733 43.9721 20.8982 44.6834 20.4006L43.227 16.9666C42.9456 17.1828 42.6278 17.3783 42.2708 17.5502C41.9164 17.7221 41.5439 17.8107 41.1556 17.8107C40.744 17.8107 40.4808 17.6596 40.361 17.3574C40.2438 17.0552 40.1838 16.6331 40.1838 16.0938V9.74689H43.9852L42.586 5.797H40.1838V1.81329H34.517V5.797H32.2815ZM26.3411 9.76249C26.784 10.2471 27.0366 10.9115 27.1018 11.7557H22.1802C22.2662 10.935 22.5528 10.2758 23.0374 9.77816C23.5246 9.28312 24.09 9.03296 24.7387 9.03296C25.364 9.03296 25.8981 9.27792 26.3411 9.76249ZM23.0712 16.9848C22.4981 16.4559 22.1906 15.7159 22.1463 14.765H32.4118C32.391 11.5915 31.6848 9.24405 30.2909 7.72245C28.8997 6.20085 27.0263 5.44007 24.6736 5.44007C23.5298 5.44007 22.4668 5.62245 21.4846 5.98983C20.5023 6.35719 19.6555 6.8965 18.9416 7.61037C18.2278 8.3217 17.6676 9.18931 17.2585 10.2159C16.8468 11.2424 16.6436 12.4123 16.6436 13.7306C16.6436 15.0906 16.8572 16.2814 17.2897 17.3079C17.7222 18.3318 18.3059 19.1864 19.0406 19.8638C19.7728 20.5465 20.63 21.0597 21.6148 21.4036C22.5971 21.7477 23.647 21.9221 24.77 21.9221C25.6975 21.9221 26.5339 21.8465 27.2791 21.6954C28.0242 21.5444 28.6834 21.3281 29.254 21.0467C29.8272 20.768 30.3353 20.4475 30.7782 20.0931C31.2211 19.7361 31.6145 19.3427 31.9611 18.9102L28.4958 16.1902C28.0607 16.7295 27.5917 17.1307 27.0862 17.3886C26.5782 17.6492 25.9685 17.7768 25.2572 17.7768C24.3713 17.7768 23.6418 17.5138 23.0712 16.9848ZM6.36249 17.7299C6.13582 17.696 5.90135 17.6492 5.66425 17.5815V9.93957C5.9248 9.85363 6.18273 9.78308 6.44328 9.73108C6.70122 9.67648 6.9826 9.65034 7.28482 9.65034C8.19157 9.65034 8.94189 9.97344 9.53595 10.6196C10.1274 11.2683 10.4244 12.2714 10.4244 13.6315C10.4244 15.0359 10.1222 16.078 9.51768 16.758C8.91323 17.4381 8.12643 17.7768 7.15454 17.7768C6.85234 17.7768 6.58917 17.7611 6.36249 17.7299ZM7.04253 5.5521C6.55531 5.62767 6.09675 5.73188 5.66425 5.86214V0H0V20.6586C0.969229 21.0259 2.02703 21.3334 3.17083 21.5809C4.31723 21.8311 5.60171 21.9561 7.02428 21.9561C8.31917 21.9561 9.51248 21.7815 10.6042 21.4376C11.6933 21.0911 12.639 20.5674 13.4363 19.8639C14.2361 19.1656 14.8563 18.2746 15.2992 17.1933C15.7421 16.1147 15.9636 14.8406 15.9636 13.3737C15.9636 12.2716 15.8021 11.2373 15.4764 10.2655C15.1533 9.29366 14.6843 8.45205 14.0694 7.73819C13.4545 7.02693 12.6911 6.46411 11.7845 6.05506C10.8777 5.64601 9.85377 5.44016 8.71001 5.44016C8.08209 5.44016 7.52711 5.47646 7.04253 5.5521Z" fill="#011B33"/>
</svg>
