<svg width="120" height="26" viewBox="0 0 120 26" fill="none" xmlns="http://www.w3.org/2000/svg">
<path d="M36.7485 3.55347H30.4544C30.2538 3.55347 30.0783 3.72899 30.0783 3.92959V18.122C30.0783 18.3225 30.2538 18.4981 30.4544 18.4981H36.7736C41.7386 18.4981 44.9482 15.5643 44.9482 11.0258C44.9482 6.46215 41.7386 3.55347 36.7485 3.55347ZM36.7485 14.5362H34.5919V7.49022H36.7736C39.0053 7.49022 40.3594 8.7941 40.3594 11.0007C40.3594 12.7559 39.1307 14.5362 36.7485 14.5362Z" fill="#011B33"/>
<path d="M72.8826 7.38989C71.1524 7.38989 69.723 8.34273 69.0961 9.29557C68.6448 8.04183 67.5916 7.38989 65.9867 7.38989C64.2064 7.38989 62.8773 8.29259 62.4009 8.89438V8.04183C62.4009 7.84123 62.2254 7.66571 62.0248 7.66571H58.7398C58.5392 7.66571 58.3637 7.84123 58.3637 8.04183V18.0968C58.3637 18.2974 58.5392 18.473 58.7398 18.473H62.0248C62.2254 18.473 62.4009 18.2974 62.4009 18.0968V11.8031C62.6266 11.5272 63.1281 10.9505 64.0308 10.9505C64.8333 10.9505 65.2595 11.3768 65.2595 12.1541V18.0968C65.2595 18.2974 65.4351 18.473 65.6357 18.473H68.9206C69.1212 18.473 69.2968 18.2974 69.2968 18.0968V11.8031C69.5224 11.5272 70.024 10.9505 70.9517 10.9505C71.7291 10.9505 72.1805 11.4019 72.1805 12.1541V18.0968C72.1805 18.2974 72.356 18.473 72.5566 18.473H75.8415C76.0421 18.473 76.2176 18.2974 76.2176 18.0968V10.6245C76.2427 8.54333 75.0391 7.38989 72.8826 7.38989Z" fill="#011B33"/>
<path d="M81.5339 7.66577H78.2489C78.0483 7.66577 77.8728 7.8413 77.8728 8.04189V18.0969C77.8728 18.2975 78.0483 18.473 78.2489 18.473H81.5339C81.7345 18.473 81.91 18.2975 81.91 18.0969V8.04189C81.91 7.8413 81.7345 7.66577 81.5339 7.66577Z" fill="#011B33"/>
<path d="M79.9792 2.34985C78.7254 2.34985 77.7224 3.35285 77.7224 4.60659C77.7224 5.86033 78.7505 6.86332 79.9792 6.86332C81.233 6.86332 82.2361 5.86033 82.2361 4.60659C82.2611 3.37792 81.233 2.34985 79.9792 2.34985Z" fill="#011B33"/>
<path d="M91.3633 7.38989C89.2821 7.38989 88.1286 8.31766 87.6521 8.89438V8.04183C87.6521 7.84123 87.4766 7.66571 87.276 7.66571H83.9911C83.7905 7.66571 83.6149 7.84123 83.6149 8.04183V18.0968C83.6149 18.2974 83.7905 18.473 83.9911 18.473H87.276C87.4766 18.473 87.6521 18.2974 87.6521 18.0968V11.8031C87.9029 11.5022 88.4044 10.9505 89.3824 10.9505C90.4355 10.9505 90.9621 11.4771 90.9621 12.5051V18.1219C90.9621 18.3225 91.1377 18.4981 91.3382 18.4981H94.6232C94.8238 18.4981 94.9993 18.3225 94.9993 18.1219V10.8251C94.9742 8.66871 93.6202 7.38989 91.3633 7.38989Z" fill="#011B33"/>
<path d="M51.468 7.33984C48.3084 7.33984 45.7507 9.89748 45.7507 13.0569C45.7507 16.2163 48.3084 18.774 51.468 18.774C54.6275 18.774 57.1852 16.2163 57.1852 13.0569C57.1601 9.89748 54.6024 7.33984 51.468 7.33984ZM51.468 14.9375C50.3897 14.9375 49.512 14.0599 49.512 12.9817C49.512 11.9035 50.3897 11.0258 51.468 11.0258C52.5462 11.0258 53.4238 11.9035 53.4238 12.9817C53.3988 14.0599 52.5462 14.9375 51.468 14.9375Z" fill="#011B33"/>
<path d="M101.87 7.36475C98.7106 7.36475 96.1529 9.92238 96.1529 13.0818C96.1529 16.2412 98.7106 18.7989 101.87 18.7989C105.03 18.7989 107.587 16.2412 107.587 13.0818C107.587 9.92238 105.03 7.36475 101.87 7.36475ZM101.87 14.9373C100.792 14.9373 99.9143 14.0597 99.9143 12.9815C99.9143 11.9033 100.792 11.0257 101.87 11.0257C102.948 11.0257 103.826 11.9033 103.826 12.9815C103.826 14.0597 102.948 14.9373 101.87 14.9373Z" fill="#011B33"/>
<path d="M110.747 4.18037C110.747 4.1553 110.747 4.1553 110.747 4.18037C110.747 4.1553 110.747 4.1553 110.747 4.1553C110.496 3.02693 109.268 2.22454 108.064 2.47529C106.835 2.72603 106.033 3.8544 106.284 5.00784C106.484 5.96069 107.312 6.61263 108.29 6.66278C108.239 7.0389 107.888 7.38996 107.613 7.56545C107.412 7.66579 107.537 7.86637 107.537 7.86637L107.788 8.2425C107.863 8.36788 107.964 8.44308 108.089 8.36788C110.571 7.31472 110.998 5.18336 110.747 4.18037Z" fill="#011B33"/>
<path d="M113.656 10.8754C113.656 10.4742 114.157 10.2986 114.834 10.2986C116.138 10.2986 116.891 10.6748 117.718 11.2264C117.793 11.2766 117.919 11.3016 118.019 11.2766C118.119 11.2515 118.22 11.1763 118.27 11.101L119.373 9.17028C119.473 8.99475 119.423 8.76908 119.248 8.66878C118.345 8.11713 117.016 7.41504 114.684 7.41504C111.349 7.41504 109.568 8.99476 109.869 11.2515C110.396 15.2133 116.565 13.8593 116.464 15.2133C116.439 15.5142 115.888 15.765 114.96 15.765C113.731 15.765 112.352 15.1632 111.474 14.6115C111.399 14.5614 111.274 14.5363 111.173 14.5614C111.073 14.5864 110.998 14.6617 110.948 14.7369L109.669 16.8682C109.568 17.0438 109.619 17.2695 109.794 17.3697C111.023 18.1972 113.004 18.7489 114.734 18.7489C118.069 18.7489 120 17.3196 120 14.9626C119.95 10.5995 113.681 11.9536 113.656 10.8754Z" fill="#011B33"/>
<path d="M25.406 7.49129L18.376 0.454742C18.0891 0.167535 17.6826 0 17.2761 0C16.8457 0 16.4631 0.167535 16.1762 0.454742L10.27 6.34249L0.466275 16.1554C-0.155425 16.7776 -0.155425 17.7589 0.466275 18.3812L7.47235 25.3938C7.75932 25.681 8.1658 25.8486 8.57228 25.8486C9.00268 25.8486 9.38529 25.681 9.6722 25.3938L18.4477 16.6101L25.3582 9.69321C26.0038 9.09489 26.0038 8.08966 25.406 7.49129Z" fill="white"/>
<path d="M24.9039 7.96997L17.8739 0.95736C17.5392 0.622286 16.9892 0.622286 16.6544 0.95736L9.07446 8.54437L17.324 16.8016L24.9039 9.21456C25.2387 8.85555 25.2387 8.32899 24.9039 7.96997ZM18.7347 10.0043C18.3282 10.4113 17.8261 10.6027 17.3 10.6027C16.774 10.6027 16.2718 10.4113 15.8654 10.0043C15.4589 9.59749 15.2675 9.09486 15.2675 8.56834C15.2675 8.04178 15.4589 7.51523 15.8654 7.13229C16.2718 6.72543 16.774 6.53397 17.3 6.53397C17.8261 6.53397 18.3282 6.72543 18.7347 7.13229C19.1412 7.53915 19.3325 8.04178 19.3325 8.56834C19.3325 9.09486 19.1173 9.62141 18.7347 10.0043Z" fill="#011B33"/>
<path d="M0.992343 16.6341C0.657581 16.9692 0.657581 17.5197 0.992343 17.8548L7.99842 24.8914C8.16583 25.0589 8.38103 25.1546 8.62015 25.1546C8.83535 25.1546 9.07443 25.0589 9.24183 24.8914L16.8218 17.3043L8.57231 9.04712L0.992343 16.6341ZM7.0659 18.6685C6.65937 19.0515 6.15725 19.2669 5.63116 19.2669C5.10513 19.2669 4.57908 19.0754 4.19649 18.6685C3.78999 18.2617 3.5987 17.759 3.5987 17.2325C3.5987 16.706 3.78999 16.1794 4.19649 15.7965C4.60299 15.3896 5.10513 15.1981 5.63116 15.1981C6.15725 15.1981 6.68329 15.3896 7.0659 15.7965C7.47238 16.2034 7.66366 16.706 7.66366 17.2325C7.66366 17.759 7.44846 18.2617 7.0659 18.6685ZM10.1505 15.8683C10.557 15.4614 11.0591 15.2699 11.5852 15.2699C12.1112 15.2699 12.6373 15.4614 13.0199 15.8683C13.4263 16.2751 13.6177 16.7778 13.6177 17.3043C13.6177 17.8308 13.4263 18.3335 13.0199 18.7403C12.6134 19.1472 12.1112 19.3387 11.5852 19.3387C11.0591 19.3387 10.557 19.1472 10.1505 18.7403C9.74395 18.3335 9.55267 17.8308 9.55267 17.3043C9.55267 16.8017 9.74395 16.2751 10.1505 15.8683Z" fill="#011B33"/>
</svg>
