<svg width="100" height="22" viewBox="0 0 100 22" fill="none" xmlns="http://www.w3.org/2000/svg">
<path fill-rule="evenodd" clip-rule="evenodd" d="M78.2811 21.0915L74.298 6.44781L68.3946 20.0026C68.1845 20.442 67.9267 20.7859 67.6207 21.0342C67.3343 21.2634 66.9715 21.3781 66.5317 21.3781C65.6723 21.3781 65.0511 20.9196 64.6693 20.0026L59.8932 9.62875L60.2274 21.0915H56.5879V1.49017C56.8363 0.496726 57.4381 0 58.3933 0C58.7754 0 59.1289 0.105093 59.4536 0.315244C59.7975 0.525391 60.0555 0.831055 60.2274 1.23227L66.6465 15.9619L73.0654 1.23227C73.4093 0.410756 73.992 0 74.8135 0C75.6925 0 76.2752 0.496726 76.5617 1.49017L81.8921 21.0915H78.2811ZM10.1159 21.1872C8.66398 21.1872 7.3171 20.9197 6.07528 20.3848C4.85258 19.8307 3.78272 19.0856 2.8657 18.1495C1.96778 17.1943 1.2609 16.0671 0.745082 14.768C0.24836 13.4689 0 12.0647 0 10.5555C0 9.02711 0.24836 7.6324 0.745082 6.37152C1.2609 5.11063 1.96778 4.04075 2.8657 3.16194C3.78272 2.26404 4.85258 1.57625 6.07528 1.09865C7.3171 0.601931 8.66398 0.353566 10.1159 0.353566H21.4067V3.993H10.1159C9.1798 3.993 8.31051 4.16493 7.5081 4.50881C6.72486 4.8336 6.04663 5.29211 5.47348 5.88434C4.90034 6.47664 4.45138 7.18346 4.1266 8.00499C3.80183 8.82646 3.63944 9.73399 3.63944 10.7274C3.63944 11.7017 3.80183 12.6092 4.1266 13.4498C4.45138 14.2904 4.90034 15.0164 5.47348 15.6277C6.04663 16.22 6.72486 16.688 7.5081 17.0319C8.31051 17.3758 9.1798 17.5477 10.1159 17.5477H19.0282V12.1316H9.62874V9.06528H22.6963V21.1872H10.1159ZM25.6679 21.1872V0.353566H29.3073V21.1872H25.6679ZM38.0076 20.3848C39.2494 20.9197 40.5963 21.1872 42.0483 21.1872H54.6287V9.06528H41.5611V12.1316H50.9606V17.5477H42.0483C41.1121 17.5477 40.2429 17.3758 39.4405 17.0319C38.6572 16.688 37.979 16.22 37.4059 15.6277C36.8327 15.0164 36.3837 14.2904 36.059 13.4498C35.7342 12.6092 35.5718 11.7017 35.5718 10.7274C35.5718 9.73399 35.7342 8.82646 36.059 8.00499C36.3837 7.18346 36.8327 6.47664 37.4059 5.88434C37.979 5.29211 38.6572 4.8336 39.4405 4.50881C40.2429 4.16493 41.1121 3.993 42.0483 3.993H53.3391V0.353566H42.0483C40.5963 0.353566 39.2494 0.601931 38.0076 1.09865C36.7849 1.57625 35.7151 2.26404 34.798 3.16194C33.9002 4.04075 33.1933 5.11063 32.6774 6.37152C32.1807 7.6324 31.9324 9.02711 31.9324 10.5555C31.9324 12.0647 32.1807 13.4689 32.6774 14.768C33.1933 16.0671 33.9002 17.1943 34.798 18.1495C35.7151 19.0856 36.7849 19.8307 38.0076 20.3848ZM93.2958 19.0378C93.2958 20.654 92.2037 21.273 91.1977 21.273H91.1892C89.9688 21.273 89.1002 20.4563 89.1002 19.098C89.1002 17.7052 89.9773 16.8713 91.2496 16.8713C92.5048 16.8713 93.2958 17.7654 93.2958 19.0378ZM90.6132 19.0721C90.6132 19.7341 90.794 20.207 91.2148 20.207H91.2234C91.6021 20.207 91.7823 19.7255 91.7823 19.0721C91.7823 18.4962 91.6277 17.9373 91.2148 17.9373C90.7592 17.9373 90.6132 18.5134 90.6132 19.0721ZM88.8229 20.0007C88.6513 20.078 88.4619 20.1038 88.2298 20.1038C87.6972 20.1038 87.2758 19.7427 87.2758 19.055C87.2672 18.4187 87.6538 18.0233 88.2127 18.0233C88.479 18.0233 88.6598 18.0663 88.7973 18.1179L88.9952 17.0089C88.7545 16.9229 88.4192 16.8799 88.1266 16.8799C86.5965 16.8799 85.7713 17.86 85.7713 19.1151C85.7713 20.4735 86.6136 21.2644 87.9379 21.2644C88.3673 21.2644 88.7631 21.1956 88.9695 21.1097L88.8229 20.0007ZM84.5894 21.273C85.097 21.273 85.4409 20.9119 85.4409 20.3875C85.4324 19.8459 85.0799 19.4934 84.598 19.4934C84.1167 19.4934 83.7472 19.8631 83.7472 20.3875C83.7472 20.9119 84.1081 21.273 84.5809 21.273H84.5894ZM93.8187 21.187H95.2718V18.7025C95.2718 18.5907 95.2803 18.479 95.3145 18.393C95.3835 18.2383 95.5124 18.0749 95.7445 18.0749C96.0799 18.0749 96.1831 18.4016 96.1831 18.7971V21.187H97.6356V18.7025C97.6356 18.6079 97.6441 18.479 97.6704 18.4101C97.7388 18.2125 97.8854 18.0749 98.109 18.0749C98.4266 18.0749 98.5469 18.3844 98.5469 18.883V21.187H100V18.6595C100 17.5419 99.5443 16.8713 98.6587 16.8713C98.3924 16.8713 98.1603 16.9314 97.9538 17.0347C97.7474 17.1464 97.5672 17.3098 97.412 17.5075H97.3949C97.2318 17.1206 96.8446 16.8713 96.3205 16.8713C95.6755 16.8713 95.306 17.2324 95.1343 17.4731H95.1081L95.0397 16.9573H93.7845C93.8016 17.3613 93.8187 17.8428 93.8187 18.3672V21.187ZM80.0457 3.51521H79.3017V1.25848H78.6353V0.617995H80.7249V1.25848H80.0457V3.51521ZM83.9676 3.51521H83.2628L83.2243 2.51367C83.2158 2.21707 83.2072 1.83878 83.2072 1.43041H83.1944C83.1211 1.79151 83.0093 2.20417 82.9317 2.47926L82.6697 3.45504H82.1023L81.8744 2.48355C81.8097 2.20846 81.7242 1.80009 81.668 1.43041H81.6594C81.6472 1.70006 81.635 1.985 81.624 2.23377V2.23712L81.6124 2.51367L81.569 3.51521H80.8984L81.092 0.617995H82.029L82.2183 1.43902C82.2959 1.77429 82.3771 2.144 82.4333 2.49216H82.4461C82.5152 2.14829 82.6049 1.7571 82.6825 1.43474L82.889 0.617995H83.8131L83.9676 3.51521Z" fill="#011B33"/>
</svg>
