<svg width="49" height="35" viewBox="0 0 49 35" fill="none" xmlns="http://www.w3.org/2000/svg">
<path d="M3.59608 0.227304C1.22461 1.16034 0 2.92922 0 5.43676C0 6.81688 0.0388765 6.91407 3.88765 16.6915C5.50103 20.8124 7.44486 25.7498 8.18351 27.6547C9.81633 31.8534 9.87464 31.9506 10.8271 32.8642C12.3822 34.3609 14.7925 34.808 16.9307 34.011C20.2158 32.7475 22.9955 28.3739 24.1035 22.6591C24.259 21.9399 24.4145 21.3567 24.4728 21.3567C24.5311 21.3567 25.503 23.6893 26.611 26.5273C28.8658 32.2421 29.3129 32.9614 31.1401 33.875C33.2006 34.9052 36.1552 34.3804 37.6908 32.7281C38.7988 31.5229 39.1292 30.6676 39.1292 28.9376C39.1292 27.5186 39.0515 27.2854 36.2718 20.1904C34.6973 16.1861 32.5202 10.6851 31.4706 7.98318C30.4015 5.26182 29.3129 2.7154 29.0213 2.28776C28.4382 1.3936 27.0775 0.441125 25.9695 0.149551C25.5225 0.0329188 24.6089 -0.0253942 23.9091 0.0134822C20.9739 0.227304 19.0884 2.15169 18.894 5.12575C18.8162 6.42811 18.8746 6.64193 19.9242 9.40217C21.2072 12.7844 21.4404 14.2423 21.1683 17.4691C20.8767 20.7736 19.9048 25.2444 19.4577 25.2444C19.3605 25.2444 19.1467 24.8362 18.9523 24.3113C18.7579 23.8059 18.0582 21.9982 17.3778 20.2876C16.7169 18.577 14.9675 14.1257 13.5096 10.3935C12.0517 6.66137 10.6911 3.27911 10.4967 2.87091C9.99127 1.899 8.5334 0.654943 7.44486 0.285617C6.39519 -0.0642705 4.43193 -0.103147 3.59608 0.227304Z" fill="white"/>
<path d="M40.5677 0.168951C38.1573 0.771538 36.6606 2.83199 36.6606 5.51448C36.6606 8.41078 38.3906 10.4907 41.1508 10.9572C41.9284 11.0738 41.9672 11.1127 42.0839 11.9097C42.2588 13.0177 41.87 15.0587 41.2869 16.05C41.0342 16.4971 40.4122 17.1386 39.9457 17.469C38.6433 18.3632 38.7988 19.4128 40.2178 19.4128C42.3366 19.4128 45.194 16.8664 46.9046 13.4453C48.5179 10.2963 48.6734 5.8838 47.2933 3.22076C46.8074 2.26828 45.6411 1.12143 44.6692 0.63547C43.6 0.0911984 41.734 -0.122623 40.5677 0.168951Z" fill="white"/>
</svg>
