<svg width="100" height="22" viewBox="0 0 100 22" fill="none" xmlns="http://www.w3.org/2000/svg">
<path d="M51.2873 21.6857V0.0302868H55.3157V9.84338L63.6145 0H67.9452L58.9801 10.3582L68.3998 21.6857H63.6446L55.3157 11.5698V21.6857H51.2873Z" fill="#011B33"/>
<path d="M79.091 0.000443661C79.0552 0.000147887 79.0194 0 78.9836 0C72.6206 0 67.9904 4.53581 67.9904 10.8671C67.9904 17.1983 72.6206 21.7342 78.9836 21.7342C84.6776 21.7342 88.9959 18.0651 89.8076 12.7207H85.1468C84.4851 15.6809 82.2172 17.7653 78.9836 17.7653C75.0778 17.7653 72.5894 14.773 72.5894 10.8671C72.5894 6.92971 75.0778 3.96885 78.9836 3.96885C79.0194 3.96885 79.0552 3.96911 79.091 3.96963V0.000443661Z" fill="#011B33"/>
<path fill-rule="evenodd" clip-rule="evenodd" d="M37.6093 21.7342C43.9405 21.7342 48.5709 17.1983 48.5709 10.8671C48.5709 4.53581 43.9405 0 37.6093 0C31.2466 0 26.6163 4.53581 26.6163 10.8671C26.6163 17.1983 31.2466 21.7342 37.6093 21.7342ZM37.6093 17.7653C33.7035 17.7653 31.2151 14.773 31.2151 10.8671C31.2151 6.92971 33.7035 3.96885 37.6093 3.96885C41.4837 3.96885 43.972 6.92971 43.972 10.8671C43.972 14.773 41.4837 17.7653 37.6093 17.7653Z" fill="#011B33"/>
<path d="M4.47283 0.346436V21.3561H0V0.346436H4.47283Z" fill="#011B33"/>
<path fill-rule="evenodd" clip-rule="evenodd" d="M20.2982 13.3554L25.0546 21.3561H19.8888L15.7625 13.8909H12.4866V21.3561H8.01372V0.346436H17.8414C22.2197 0.346436 24.9286 3.21282 24.9286 7.11865C24.9286 10.804 22.5662 12.8199 20.2982 13.3554ZM12.4866 9.95354H17.2114C18.9753 9.95354 20.3298 8.88261 20.3298 7.08715C20.3298 5.35475 18.9753 4.28378 17.2114 4.28378H12.4866V9.95354Z" fill="#011B33"/>
<path d="M86.0669 11.3749V2.13172H89.3753V0H80.3028V2.13172H83.6278V11.3749H86.0669Z" fill="#011B33"/>
<path d="M95.6174 11.3749L100 0H97.2547L94.0994 8.73155L90.9446 0H88.1988L92.5819 11.3749H95.6174Z" fill="#011B33"/>
</svg>
