<svg width="33" height="24" viewBox="0 0 33 24" fill="none" xmlns="http://www.w3.org/2000/svg">
<path d="M2.46048 0.155487C0.837892 0.793881 0 2.00417 0 3.71985C0 4.66414 0.0265997 4.73064 2.65997 11.4205C3.76386 14.2401 5.09385 17.6182 5.59925 18.9216C6.71644 21.7944 6.75633 21.8609 7.40803 22.486C8.47202 23.5101 10.1212 23.816 11.5842 23.2707C13.8319 22.4062 15.7337 19.4137 16.4918 15.5035C16.5982 15.0114 16.7046 14.6124 16.7445 14.6124C16.7844 14.6124 17.4494 16.2084 18.2075 18.1502C19.7503 22.0604 20.0562 22.5525 21.3064 23.1776C22.7162 23.8825 24.7378 23.5234 25.7885 22.3929C26.5465 21.5683 26.7726 20.9831 26.7726 19.7994C26.7726 18.8285 26.7194 18.6689 24.8176 13.8145C23.7403 11.0747 22.2507 7.31082 21.5325 5.46214C20.801 3.60015 20.0562 1.85787 19.8567 1.56527C19.4577 0.95348 18.5267 0.301786 17.7686 0.102288C17.4627 0.0224881 16.8376 -0.0174106 16.3588 0.00918849C14.3506 0.155487 13.0605 1.47218 12.9275 3.50706C12.8743 4.39815 12.9142 4.54445 13.6324 6.43303C14.5102 8.7472 14.6698 9.7447 14.4836 11.9525C14.2841 14.2135 13.6191 17.2724 13.3132 17.2724C13.2467 17.2724 13.1004 16.9931 12.9674 16.634C12.8344 16.2882 12.3556 15.0513 11.8901 13.881C11.4379 12.7106 10.2409 9.6649 9.24341 7.11132C8.24592 4.55775 7.31493 2.24357 7.18193 1.96427C6.83613 1.29928 5.83864 0.448085 5.09385 0.195387C4.37566 -0.0440113 3.03237 -0.0706104 2.46048 0.155487Z" fill="#080F4D"/>
<path d="M27.7568 0.115599C26.1076 0.527894 25.0836 1.93768 25.0836 3.77306C25.0836 5.75474 26.2672 7.17783 28.1558 7.49703C28.6878 7.57683 28.7144 7.60343 28.7942 8.14872C28.9139 8.90681 28.6479 10.3033 28.2489 10.9816C28.076 11.2875 27.6504 11.7264 27.3312 11.9525C26.4401 12.5643 26.5465 13.2825 27.5174 13.2825C28.9671 13.2825 30.9222 11.5402 32.0926 9.19941C33.1965 7.04483 33.3029 4.02576 32.3586 2.20368C32.0261 1.55198 31.2281 0.767293 30.5631 0.434796C29.8316 0.0623991 28.5548 -0.0838991 27.7568 0.115599Z" fill="#080F4D"/>
</svg>
