<svg width="130" height="30" viewBox="0 0 130 30" fill="none" xmlns="http://www.w3.org/2000/svg">
<path d="M14.7354 18.2541C14.1487 19.2894 13.2987 20.1512 12.2716 20.7519C11.2444 21.3526 10.0765 21.671 8.88657 21.6747C7.6803 21.6762 6.49357 21.3697 5.43898 20.784C4.39374 20.2299 3.52533 19.3932 2.93284 18.3693C2.69927 17.9644 2.51075 17.5351 2.37066 17.0891H0V29.3556H2.21488V20.3471C3.06481 21.3848 4.12573 22.2298 5.32721 22.8261C6.5059 23.3883 7.79754 23.6733 9.10334 23.6592C10.2632 23.6774 11.4144 23.4578 12.4862 23.0139C13.5579 22.5701 14.5274 21.9115 15.3348 21.0786C16.4537 19.9857 17.2494 18.6052 17.6344 17.0891H15.2637C15.1226 17.4924 14.9457 17.8823 14.7354 18.2541Z" fill="#011B33"/>
<path d="M4.01996 10.0718C4.65103 9.43625 5.40508 8.93606 6.236 8.60182C7.06694 8.26758 7.95735 8.10631 8.8527 8.12786C10.0454 8.11515 11.2204 8.41649 12.2597 9.00162C13.2975 9.58954 14.1556 10.4489 14.7421 11.4874C14.9588 11.8705 15.1391 12.273 15.2806 12.6897H17.6513C17.2678 11.1401 16.4528 9.73093 15.3009 8.62571C14.4843 7.79537 13.5077 7.13942 12.4302 6.69758C11.3527 6.25574 10.1967 6.03721 9.03224 6.05523C7.71118 6.03626 6.40515 6.3372 5.22561 6.93237C4.03495 7.56315 3.00494 8.45877 2.21488 9.55026V6.4684H0V12.6897H2.40114C2.72188 11.6994 3.27726 10.8012 4.01996 10.0718Z" fill="#011B33"/>
<path d="M36.2745 18.3625C35.6821 19.3853 34.8151 20.2217 33.7718 20.7772C32.7203 21.3654 31.5357 21.6744 30.3309 21.6747C29.1366 21.6747 27.9636 21.3582 26.9314 20.7573C25.8992 20.1565 25.0448 19.2927 24.4551 18.2541C24.2446 17.8823 24.0678 17.4924 23.9268 17.0891H21.5561C21.941 18.6052 22.7367 19.9857 23.8556 21.0786C24.6642 21.9118 25.6348 22.5706 26.7077 23.0145C27.7806 23.4583 28.933 23.6777 30.0939 23.6592C31.4028 23.6724 32.6976 23.3875 33.8801 22.8261C35.0856 22.2315 36.1502 21.3863 37.0026 20.3471V23.2257H39.1836V17.0891H36.813C36.68 17.5318 36.4995 17.9587 36.2745 18.3625Z" fill="#011B33"/>
<path d="M24.4483 11.4876C25.0357 10.4485 25.8951 9.58917 26.9341 9.00175C27.9756 8.41606 29.1529 8.11472 30.3478 8.12799C31.2449 8.10763 32.1368 8.27041 32.9689 8.60639C33.801 8.94238 34.5559 9.44451 35.1873 10.0821C35.9313 10.8111 36.4878 11.7093 36.8096 12.7H39.1802V6.46853H36.9992V9.55039C36.2154 8.44889 35.1842 7.54648 33.9885 6.91557C32.7995 6.31981 31.4845 6.01895 30.1548 6.03842C28.9893 6.02008 27.8322 6.23843 26.7535 6.68026C25.6748 7.12208 24.697 7.7782 23.8793 8.6089C22.7198 9.71145 21.8976 11.1209 21.5086 12.6729H23.8793C24.0315 12.2609 24.222 11.864 24.4483 11.4876Z" fill="#011B33"/>
<path d="M50.573 19.3717L49.5265 17.0891H47.1626L49.3809 21.9591L46.0687 29.3556H48.4089L53.9088 17.0891H51.589L50.573 19.3717Z" fill="#011B33"/>
<path d="M58.6705 6.46851H56.3134L53.5465 12.6898H55.8799L58.6705 6.46851Z" fill="#011B33"/>
<path d="M44.6633 6.46851H42.3231L45.1577 12.6898H47.5115L44.6633 6.46851Z" fill="#011B33"/>
<path d="M63.4118 0H61.197V12.6898H63.4118V0Z" fill="#011B33"/>
<path d="M63.4118 17.0891H61.197V23.2257H63.4118V17.0891Z" fill="#011B33"/>
<path d="M82.9732 9.55039C82.1893 8.44889 81.1581 7.54648 79.9624 6.91557C78.7734 6.31981 77.4585 6.01895 76.1287 6.03842C74.9632 6.02008 73.8061 6.23843 72.7274 6.68026C71.6488 7.12208 70.671 7.7782 69.8532 8.6089C68.6938 9.71145 67.8716 11.1209 67.4826 12.6729H69.8532C69.9947 12.2562 70.175 11.8536 70.3917 11.4706C70.9791 10.4316 71.8385 9.57224 72.8775 8.98482C73.9247 8.40272 75.1069 8.10717 76.3048 8.12799C77.2035 8.11284 78.096 8.2788 78.9292 8.61595C79.7624 8.95311 80.5191 9.45457 81.1544 10.0904C81.7896 10.7263 82.2903 11.4836 82.6266 12.3171C82.963 13.1506 83.128 14.0433 83.112 14.942C83.129 16.1431 82.8263 17.3271 82.2349 18.3726C81.6425 19.3954 80.7755 20.2319 79.7321 20.7873C78.6787 21.3725 77.4929 21.6781 76.2879 21.6747C75.0935 21.6747 73.9205 21.3582 72.8884 20.7573C71.8562 20.1564 71.0017 19.2927 70.412 18.2541C70.2016 17.8823 70.0248 17.4924 69.8837 17.0891H67.5131C67.8979 18.6052 68.6936 19.9857 69.8126 21.0786C70.6212 21.9118 71.5918 22.5706 72.6647 23.0144C73.7375 23.4583 74.8899 23.6777 76.0508 23.6592C77.3598 23.6724 78.6546 23.3875 79.8371 22.8261C81.0475 22.2331 82.1168 21.3878 82.9732 20.3471V23.2257H85.1542V6.46853H82.9732V9.55039Z" fill="#011B33"/>
<path d="M94.2713 0.247314H92.0598V6.46858H89.0389V8.33125H92.0598V23.2258H94.2713V8.33125H97.7799V6.46858H94.2713V0.247314Z" fill="#011B33"/>
<path d="M116.118 9.28635C114.366 7.12115 112.025 6.03741 109.094 6.03516C106.245 6.03516 103.972 7.09293 102.274 9.20846C100.953 10.8097 100.241 12.826 100.262 14.9014C100.258 17.153 101.105 19.323 102.633 20.9771C104.213 22.7698 106.408 23.6661 109.216 23.6661C110.37 23.6822 111.517 23.4919 112.603 23.1039C113.601 22.7328 114.52 22.1767 115.312 21.4648C116.19 20.6549 116.913 19.6935 117.449 18.6268L115.583 17.6717C115.078 18.5521 114.444 19.3513 113.7 20.0424C113.073 20.5601 112.357 20.9605 111.587 21.2243C110.767 21.5216 109.902 21.674 109.03 21.6747C108.18 21.6947 107.335 21.5394 106.548 21.2183C105.761 20.8972 105.048 20.4174 104.455 19.8087C103.837 19.1759 103.35 18.4275 103.022 17.6065C102.693 16.7853 102.53 15.9076 102.541 15.0234H118.018C117.996 12.7295 117.362 10.8171 116.118 9.28635ZM102.761 13.1539C103.213 11.6141 103.884 10.4593 104.773 9.68936C105.975 8.63663 107.527 8.07131 109.125 8.10441C110.136 8.10197 111.135 8.318 112.054 8.73771C112.919 9.11158 113.685 9.68076 114.293 10.4006C114.918 11.2148 115.359 12.1556 115.583 13.1573L102.761 13.1539Z" fill="#011B33"/>
<path d="M128.039 6.03833C127.206 6.04416 126.393 6.29246 125.699 6.75292C124.853 7.32787 124.128 8.0631 123.565 8.91699V6.46844H121.303V23.2256H123.565V17.5597C123.565 14.654 123.702 12.7236 123.975 11.7686C124.334 10.5268 124.856 9.61013 125.54 9.01859C126.118 8.46899 126.879 8.15189 127.677 8.1279C128.081 8.14885 128.478 8.24775 128.845 8.41915L130 6.60052C129.404 6.25164 128.73 6.05832 128.039 6.03833Z" fill="#011B33"/>
<path d="M76.2336 20.3369C77.239 20.3398 78.2264 20.0691 79.0898 19.554C79.9533 19.0388 80.6604 18.2985 81.1355 17.4124C81.6105 16.5262 81.8356 15.5275 81.7867 14.5233C81.7378 13.519 81.4167 12.547 80.8578 11.7112C80.2988 10.8754 79.5231 10.2073 78.6137 9.7785C77.7043 9.34968 76.6953 9.17627 75.6949 9.27681C74.6945 9.37736 73.7403 9.74808 72.9343 10.3493C72.1284 10.9505 71.5012 11.7595 71.1198 12.6898H74.8451V11.4639L80.0808 14.793L74.8451 18.122V17.0891H71.1909C71.631 18.0574 72.3405 18.8785 73.2347 19.4544C74.1289 20.0303 75.17 20.3367 76.2336 20.3369Z" fill="#011B33"/>
</svg>
