<svg width="99" height="35" viewBox="0 0 99 35" fill="none" xmlns="http://www.w3.org/2000/svg">
<path fill-rule="evenodd" clip-rule="evenodd" d="M18.4028 34.128L23.8605 19.1747C24.9431 16.5328 26.6239 16.4587 26.8149 16.4595C27.9303 16.4757 29.4518 15.8308 31.5545 13.9698C31.7049 13.837 31.857 13.6974 32.0138 13.5521L32.1927 13.3833C34.9604 10.9713 37.8123 10.1477 39.9312 10.1477C43.2158 10.1477 45.0944 11.3761 45.3548 14.2884C47.7988 11.4672 51.3376 10.1477 54.2123 10.1477C60.007 10.1477 60.2046 14.1062 58.2947 19.3394L52.8978 34.128H46.7835L51.8823 20.1581C52.679 17.9745 53.8082 14.8799 50.2953 14.8799C46.2342 14.8799 43.9713 19.7031 42.8584 22.7526L38.7071 34.1281H32.5933L37.6923 20.1583C38.4895 17.9746 39.6183 14.8801 36.1048 14.8801C32.0441 14.8801 29.7824 19.7033 28.669 22.7527L24.5171 34.1283H18.4028V34.128Z" fill="#011B33"/>
<path fill-rule="evenodd" clip-rule="evenodd" d="M54.98 34.128L63.5325 10.6936H69.6463L61.0936 34.128H54.98Z" fill="#011B33"/>
<path d="M24.0171 10.5779C24.5142 10.6752 25.057 10.796 25.6336 10.9465L25.9095 11.0125C26.4545 11.1686 27.0337 11.3453 27.6311 11.5539C24.3435 15.4346 19.2713 14.6512 19.2713 14.6512L18.9484 14.6013H18.4219C16.7533 14.607 14.5231 15.1987 13.6165 17.2012C11.9274 20.9328 23.6302 18.5662 19.7987 27.0298C17.3266 32.4908 11.4562 34.6741 6.4823 34.6741C4.15572 34.6741 1.96772 34.2653 0 33.6735L1.82458 30.202H7.42048C7.59553 30.2107 7.77369 30.2149 7.95385 30.2149C9.50469 30.2149 12.2367 29.6237 13.2669 27.3483C15.3475 22.7526 3.29449 25.8916 7.12599 17.4284C9.41189 12.3775 14.8475 10.1477 19.6389 10.1477C21.4841 10.1477 22.8311 10.3357 24.0171 10.5779Z" fill="#011B33"/>
<path fill-rule="evenodd" clip-rule="evenodd" d="M81.771 0L71.0409 29.4001C69.2043 33.646 64.4756 34.0837 63.5526 34.129L63.2016 34.1282L75.657 0H81.771Z" fill="#011B33"/>
<path fill-rule="evenodd" clip-rule="evenodd" d="M81.7046 20.1128H92.1077C93.0045 17.1552 92.5665 14.607 89.1446 14.607C85.7215 14.607 83.1242 16.9732 81.7046 20.1128ZM84.7256 30.2149C84.9066 30.2149 85.0879 30.2107 85.269 30.2027H92.5315L91.5811 32.8083C88.8966 34.0372 86.1088 34.6741 82.8238 34.6741C75.0668 34.6741 72.1776 30.2149 74.9842 22.5247C77.4588 15.7446 83.1059 10.1477 90.4068 10.1477C99.1218 10.1477 99.4099 16.1087 96.4206 24.2994H80.1769C79.072 28.0766 80.9376 30.2149 84.7256 30.2149Z" fill="#011B33"/>
<path fill-rule="evenodd" clip-rule="evenodd" d="M64.1372 8.9829L65.6067 4.95639C65.8786 4.26863 66.6222 3.15771 69.7951 3.15771H72.3771L72.1855 3.68162C70.1381 8.9618 64.4791 8.98181 64.4791 8.98181L64.1372 8.9829Z" fill="#022B50"/>
</svg>
