<svg width="100" height="28" viewBox="0 0 100 28" fill="none" xmlns="http://www.w3.org/2000/svg">
<path d="M1.81409 10.3459H0V7.18646H1.81409V1.59668H5.27032V7.18646H8.4771V10.3459H5.27032V16.847C5.27032 18.4365 5.81769 19.0173 7.08442 19.0173C7.49118 19.0238 7.89734 18.9847 8.29542 18.9007V21.9921C7.70966 22.1173 7.11159 22.1751 6.51281 22.1646C3.36419 22.1646 1.81651 20.5193 1.81651 17.2238V10.3459H1.81409Z" fill="#011B33"/>
<path d="M20.0398 17.6585C20.8701 16.8097 21.3353 15.6678 21.3353 14.4784C21.3353 13.289 20.8701 12.1471 20.0398 11.2983C19.6285 10.8831 19.1372 10.5563 18.5958 10.3378C18.0545 10.1193 17.4745 10.0136 16.8912 10.0272C16.3182 10.0149 15.7487 10.1214 15.2186 10.3401C14.6885 10.5589 14.2091 10.8851 13.8104 11.2983C13.0305 12.1727 12.5993 13.3049 12.5993 14.4784C12.5993 15.6519 13.0305 16.7841 13.8104 17.6585C14.2094 18.0713 14.6889 18.3972 15.2189 18.6159C15.749 18.8345 16.3182 18.9413 16.8912 18.9296C17.4745 18.9426 18.0543 18.8367 18.5955 18.6182C19.1367 18.3997 19.6281 18.0732 20.0398 17.6585ZM21.0716 9.30543V7.1959H24.5278V17.3693C24.5278 18.6112 24.8161 19.0705 25.5935 19.0705C25.7945 19.0705 26.0537 19.0413 26.3201 19.0146V21.8168C25.773 21.9943 25.1996 22.0765 24.6248 22.0599C23.9234 22.0961 23.2258 21.9363 22.6096 21.5981C22.3028 21.4007 22.0396 21.1423 21.8363 20.8388C21.633 20.5353 21.4939 20.1932 21.4276 19.8336C20.4201 21.3672 18.7489 22.1182 16.4456 22.1182C15.4766 22.139 14.5143 21.955 13.6209 21.5782C12.7275 21.2013 11.9231 20.6401 11.26 19.9309C9.87704 18.4556 9.18677 16.6645 9.18677 14.4966C9.18677 12.3288 9.87704 10.5376 11.26 9.09399C11.9228 8.38443 12.7271 7.82293 13.6206 7.44606C14.514 7.06919 15.4766 6.88541 16.4456 6.90669C18.778 6.90669 20.5339 7.94687 21.0813 9.33702" fill="#011B33"/>
<path d="M27.2502 21.7611L32.7506 14.0739L27.7394 7.19604H31.4839L34.6519 11.5609L37.7908 7.19604H41.5643L36.5532 14.0447L42.0536 21.7611H38.3382L34.6519 16.616L30.9656 21.7611H27.2502Z" fill="#011B33"/>
<path d="M43.1435 7.19602H46.5997V17.4253C46.5997 18.553 46.8298 18.9589 47.6072 18.9589C47.8105 18.9597 48.0134 18.9401 48.2127 18.9005V21.8169C47.6556 22.0016 47.0697 22.084 46.4834 22.06C44.2673 22.06 43.1435 20.8181 43.1435 18.361V7.19602ZM42.7971 3.43872C42.7942 3.03016 42.9122 2.62992 43.136 2.28862C43.3598 1.94731 43.6795 1.68027 44.0546 1.52126C44.4296 1.36226 44.8433 1.31842 45.2432 1.3953C45.6431 1.47218 46.0113 1.66632 46.3012 1.95318C46.5911 2.24004 46.7898 2.60672 46.872 3.00686C46.9543 3.40701 46.9165 3.82265 46.7633 4.20122C46.6102 4.57978 46.3486 4.90427 46.0116 5.13366C45.6747 5.36305 45.2775 5.48702 44.8704 5.48992C44.5993 5.49444 44.3301 5.4447 44.0784 5.34358C43.8267 5.24246 43.5977 5.09201 43.4046 4.90102C43.2116 4.71003 43.0584 4.48234 42.9541 4.23126C42.8498 3.98017 42.7964 3.71074 42.7971 3.43872Z" fill="#011B33"/>
<path d="M51.1047 21.7611V10.3384H48.7311V7.17903H51.1047V6.4499C51.1047 4.22614 51.5648 3.04743 52.6887 2.14335C53.4661 1.50903 54.6481 1.19065 56.2878 1.19065C56.7894 1.18009 57.2907 1.21917 57.7846 1.30731V4.3185C57.3532 4.2056 56.9077 4.15647 56.4621 4.17267C55.1664 4.17267 54.5609 4.75109 54.5609 6.22388V7.19603H57.2978V10.3554H54.5609V21.7781L51.1047 21.7611Z" fill="#011B33"/>
<path d="M60.2623 24.6799C60.7846 24.8411 61.329 24.919 61.8754 24.9108C62.3196 24.9315 62.76 24.8208 63.1421 24.5924C63.4594 24.3906 63.7476 23.9581 63.9777 23.3505L64.3531 22.303L58.2762 7.19602H61.7615L66.0243 18.1714L70.0279 7.19116H73.5107L67.0028 24.1257C66.6696 25.0913 66.1401 25.9768 65.4478 26.7262C64.5832 27.5379 63.4303 27.9414 61.9626 27.9414C61.3894 27.9447 60.8187 27.867 60.2671 27.7105L60.2623 24.6799Z" fill="#011B33"/>
<path d="M88.9034 2.16532C87.1511 2.16468 85.438 2.68262 83.9806 3.65363C82.5233 4.62464 81.3873 6.00511 80.7162 7.62042C80.0452 9.23574 79.8693 11.0133 80.2108 12.7284C80.5523 14.4434 81.3958 16.0189 82.6346 17.2556C83.8735 18.4923 85.4521 19.3346 87.1707 19.6759C88.8893 20.0173 90.6708 19.8424 92.2898 19.1734C93.9088 18.5044 95.2926 17.3713 96.2662 15.9174C97.2399 14.4636 97.7596 12.7543 97.7596 11.0057C97.7596 8.66163 96.8266 6.41353 95.1658 4.75573C93.5051 3.09794 91.2525 2.16616 88.9034 2.16532ZM100 11.0792C100 16.9803 96.2659 19.9612 88.9034 27.132V22.1521C86.7079 22.1527 84.5614 21.5036 82.7355 20.2868C80.9097 19.07 79.4865 17.3401 78.646 15.3161C77.8055 13.2921 77.5854 11.0648 78.0136 8.91602C78.4418 6.76714 79.499 4.79331 81.0515 3.2441C82.6041 1.6949 84.5821 0.639944 86.7356 0.212672C88.889 -0.214597 91.1211 0.00501462 93.1494 0.843733C95.1778 1.68245 96.9113 3.10258 98.1307 4.92452C99.3501 6.74645 100.001 8.88831 100 11.0792Z" fill="#011B33"/>
<path d="M83.1914 13.8554H86.9992V10.0557H83.1914V13.8554Z" fill="#011B33"/>
<path d="M86.9991 10.0558H90.807V6.2561H86.9991V10.0558Z" fill="#011B33"/>
<path d="M90.8069 13.8554H94.6148V10.0557H90.8069V13.8554Z" fill="#011B33"/>
</svg>
